PathFileType	4	(X/Y/Z)	/Users/niels/Desktop/University/Third Semester/Perception and Action/Exam/Gymnastics Motion Tracking/Code for Gym Tracking/Analyzed Data/Webcam_Backflip/id2_3_pure_Sports2D/id2_3_pure_Sports2D_px_person00.trc
DataRate	CameraRate	NumFrames	NumMarkers	Units	OrigDataRate	OrigDataStartFrame	OrigNumFrames
29.874476987447697	29.874476987447697	11	22	m	29.874476987447697	119	239
Frame#	Time	Hip			RHip			RKnee			RAnkle			RBigToe			RSmallToe			RHeel			LHip			LKnee			LAnkle			LBigToe			LSmallToe			LHeel			Neck			Head			Nose			RShoulder			RElbow			RWrist			LShoulder			LElbow			LWrist		
		X1	Y1	Z1	X2	Y2	Z2	X3	Y3	Z3	X4	Y4	Z4	X5	Y5	Z5	X6	Y6	Z6	X7	Y7	Z7	X8	Y8	Z8	X9	Y9	Z9	X10	Y10	Z10	X11	Y11	Z11	X12	Y12	Z12	X13	Y13	Z13	X14	Y14	Z14	X15	Y15	Z15	X16	Y16	Z16	X17	Y17	Z17	X18	Y18	Z18	X19	Y19	Z19	X20	Y20	Z20	X21	Y21	Z21	X22	Y22	Z22
119	3.9833333333333334	0.7535276675459391	-0.604778591470837	0.0	0.7518619980486942	-0.6037445426354834	0.0	0.836670614650176	-0.679517823441497	0.0	0.7619898934554596	-0.7758286552412957	0.0	0.7969655463140525	-0.7982221846346859	0.0	0.7889238479291152	-0.8016210172397722	0.0	0.7453140051345171	-0.7854111170829255	0.0	0.7566315776902846	-0.6016297763646754	0.0	0.8348675559580355	-0.6777551191711156	0.0	0.7749898537914861	-0.7685860034106433	0.0	0.8049422204154411	-0.7907971091896773	0.0	0.7996463576219781	-0.7912434192461207	0.0	0.7498574145858494	-0.7749451942305637	0.0	0.8004778408765714	-0.45937413749477707	0.0	0.8369712551797116	-0.38547305512359353	0.0	0.8346325989907664	-0.4245933503878376	0.0	0.796265610610309	-0.45357941131588536	0.0	0.8324958617721845	-0.3780645742613178	0.0	0.8544175627104141	-0.3118236516020061	0.0	0.7969362044591854	-0.45835856738261244	0.0	0.8268227849824032	-0.3862105957250002	0.0	0.8465823703784185	-0.3259102899972504	0.0
120	4.016806722689076	0.7554591467693202	-0.5773743207532077	0.0	0.7534288340193189	-0.5760185430358994	0.0	0.8391057481140579	-0.6535943761991017	0.0	0.7628342992387644	-0.7522257612992602	0.0	0.8019195654112714	-0.7777717626371694	0.0	0.7933736622715807	-0.7812636443513034	0.0	0.7454305185951922	-0.7632949214828035	0.0	0.7601883612191904	-0.5740570203248812	0.0	0.8369401687384675	-0.652432740930122	0.0	0.7792978986702807	-0.7458016792559474	0.0	0.8116047532007326	-0.7696665480619423	0.0	0.8074806421110172	-0.7681987994023359	0.0	0.7536884367254075	-0.7558918829339325	0.0	0.7988223054764046	-0.4309173501211241	0.0	0.8348341116941455	-0.35635623590203924	0.0	0.8336382344420298	-0.3962971675991145	0.0	0.7942783485871926	-0.425171110793344	0.0	0.8314346759796966	-0.3516339830714014	0.0	0.856979430190527	-0.2870089577715986	0.0	0.7972312836033177	-0.42954333621890445	0.0	0.8319787464752311	-0.3605900792723906	0.0	0.8537540619409324	-0.3034069021013053	0.0
121	4.050280112044818	0.7582130323290868	-0.5508742216603913	0.0	0.7560911303122143	-0.5495014305157495	0.0	0.8389846814754155	-0.6323586496022956	0.0	0.7643729425398417	-0.734547425987441	0.0	0.80634301344282	-0.7615879676139781	0.0	0.7972366088588679	-0.7650623632753896	0.0	0.7466276514736774	-0.7463957078553316	0.0	0.7645771163793119	-0.547854241169644	0.0	0.8365877543497429	-0.6316093238619929	0.0	0.7834638535365298	-0.7291132216822093	0.0	0.8177782489785356	-0.7532656241698408	0.0	0.8141030811876742	-0.7498745481854039	0.0	0.7581529065472706	-0.7410797497869331	0.0	0.7971086394580704	-0.4029829310879351	0.0	0.832665569145393	-0.3282188836283952	0.0	0.8329331551285991	-0.3686540921444162	0.0	0.792107526452293	-0.3974536099784957	0.0	0.8289975556883803	-0.3252339000804258	0.0	0.8580024404695549	-0.2616814207285483	0.0	0.7980949928097627	-0.4020692433895744	0.0	0.837435009113917	-0.33594690478217704	0.0	0.8610663250271701	-0.2818708452572017	0.0
122	4.08375350140056	0.7612518219797947	-0.526685659933123	0.0	0.7594553283354447	-0.5254835808500844	0.0	0.8368064561344084	-0.6159648241826592	0.0	0.7669371339775048	-0.7226729159268978	0.0	0.810551843812595	-0.7500619516957218	0.0	0.8009577240164193	-0.7534863199223238	0.0	0.749184146128498	-0.7351058565803148	0.0	0.7689465728862652	-0.5242556289890854	0.0	0.8341397198637999	-0.6155231080744951	0.0	0.787163664478702	-0.7179595580479818	0.0	0.8230855737528782	-0.7416658983831049	0.0	0.8195275097321815	-0.7367728701700778	0.0	0.7625068572662341	-0.7306381318276003	0.0	0.795574769142801	-0.3771117993864581	0.0	0.8309099491725381	-0.30255465859608316	0.0	0.8325241622998856	-0.34326006412031324	0.0	0.7900359664249688	-0.3718141026554966	0.0	0.8255846226451371	-0.3000880172407788	0.0	0.8569791359124012	-0.23715733691530239	0.0	0.7990403626621982	-0.377227625797193	0.0	0.8418517373560125	-0.31334077428448087	0.0	0.866804558611109	-0.2621034995234484	0.0
123	4.117226890756302	0.7644004943728454	-0.5058821000188813	0.0	0.7633654274349014	-0.5049172794178577	0.0	0.8330430608741408	-0.6039693811912028	0.0	0.7703835223172462	-0.7155956243251506	0.0	0.8145590329421355	-0.7428562474727392	0.0	0.8045922783645071	-0.7462550589896368	0.0	0.7529067526131449	-0.7287995480819054	0.0	0.7729354162724764	-0.5041231339115616	0.0	0.8302342636614011	-0.6037470435953974	0.0	0.7899712470600265	-0.7110156537053763	0.0	0.8271895318445479	-0.7343166000039468	0.0	0.8237249078152669	-0.7284273469139414	0.0	0.7659974309756146	-0.7239661847110134	0.0	0.7942859465831416	-0.35441938980198956	0.0	0.8296331156736102	-0.2803456067060508	0.0	0.8321780217065502	-0.3211904433383074	0.0	0.7882794002222773	-0.3492838639737441	0.0	0.8218739630721359	-0.27735092566188907	0.0	0.8541240867118316	-0.21488525804380468	0.0	0.7994611922101235	-0.3556859769730924	0.0	0.844064061038801	-0.29329028355721654	0.0	0.8697954466416153	-0.244321102471209	0.0
124	4.150700280112044	0.767769346976756	-0.489196594748329	0.0	0.7678253673903604	-0.4884936230233432	0.0	0.8281581634187669	-0.5957299402824578	0.0	0.7740694640954954	-0.7119791927103664	0.0	0.8179318155323057	-0.7392668334803798	0.0	0.8077171423149684	-0.7426728183971617	0.0	0.7570827763846762	-0.7262861413459399	0.0	0.7765070536924238	-0.48803994501257714	0.0	0.8255000754131565	-0.5956365344236951	0.0	0.7914074862785866	-0.7069545108764523	0.0	0.8297779044060017	-0.7304596738279224	0.0	0.8265065195225896	-0.7239748629735416	0.0	0.7679679827694406	-0.7201263149797693	0.0	0.7930891489265829	-0.3358348568714185	0.0	0.8284265169817719	-0.26236037543971236	0.0	0.8315011360899226	-0.30323087949840855	0.0	0.7868565012730501	-0.33083559707628624	0.0	0.8182664998469883	-0.2581865113386631	0.0	0.8499331869344309	-0.1962704469133719	0.0	0.7988568173432	-0.33801171619573445	0.0	0.8433952196920435	-0.27621865379792526	0.0	0.8694745204833735	-0.22857160551185163	0.0
125	4.184173669467787	0.7715195265757238	-0.4769839320692604	0.0	0.7728079980928182	-0.47658240674032787	0.0	0.8227145996119013	-0.5906568518377449	0.0	0.7770855784364812	-0.7106687929345363	0.0	0.8199315512193769	-0.7385520877901688	0.0	0.8095942476556488	-0.7419973899098833	0.0	0.7607282232288342	-0.726331131738719	0.0	0.7797671617298183	-0.47630973211711847	0.0	0.8204099267601818	-0.5906260541347566	0.0	0.7911562916153888	-0.7048905853197843	0.0	0.8305524207107197	-0.7294296863990524	0.0	0.8275349873254775	-0.7225947396808384	0.0	0.7680446393875734	-0.7182561364059131	0.0	0.7917444689590304	-0.32211586443439566	0.0	0.8266665719225783	-0.24918019750265366	0.0	0.8301275257076058	-0.28991595778509116	0.0	0.7855940097420158	-0.3173419448471304	0.0	0.814738674317802	-0.24362293105882912	0.0	0.8449207593411727	-0.18238734049552843	0.0	0.7970355294046231	-0.3248184911803627	0.0	0.8398035297683278	-0.2626097035734849	0.0	0.8658433264162929	-0.2149904254032366	0.0
126	4.2176470588235295	0.7756763834854415	-0.4693187556146421	0.0	0.7781357372301488	-0.4692585002323084	0.0	0.81732231706093	-0.5883508661505895	0.0	0.7786437685082311	-0.7110290110961285	0.0	0.8198584216105299	-0.7401803233098213	0.0	0.8095106191470731	-0.7437003876558967	0.0	0.7629921205086626	-0.7280722397627942	0.0	0.7828504147564127	-0.4690138996181418	0.0	0.8153587078974545	-0.5883627982183863	0.0	0.7892793465534547	-0.7044827051054081	0.0	0.8292867774189095	-0.7307446721343291	0.0	0.826490073843154	-0.7236893028104775	0.0	0.7663290603040724	-0.7178897578840366	0.0	0.7900828463980424	-0.31371624876186294	0.0	0.8239183533550695	-0.24106843224032515	0.0	0.8279104828488199	-0.28148279397498294	0.0	0.7842915182107534	-0.3092957734734487	0.0	0.8110859661450306	-0.23432899218699632	0.0	0.8395322935900791	-0.17382401383461135	0.0	0.7941421797852027	-0.31653825594609825	0.0	0.8338292126586008	-0.25296759814013886	0.0	0.8594304222475865	-0.20403846486489893	0.0
127	4.251120448179272	0.7800733554406354	-0.46613807787725825	0.0	0.783477562524758	-0.46643626609243793	0.0	0.8124478587822238	-0.5886511468651167	0.0	0.7784283306516875	-0.7130290575912418	0.0	0.8174762196468387	-0.7439007869040456	0.0	0.8071783191437027	-0.7475250679237433	0.0	0.7635082624153351	-0.7312499328776302	0.0	0.7858422412136837	-0.46613492051379174	0.0	0.8107356049246399	-0.588739560044971	0.0	0.7862743065277167	-0.7058521599905806	0.0	0.8260697039657786	-0.7341232710938622	0.0	0.8234192504720135	-0.7269443956867044	0.0	0.7634727930801297	-0.7191147201274399	0.0	0.7881294811575541	-0.3106820291295446	0.0	0.8202499803186492	-0.23790742663616435	0.0	0.8250195074187248	-0.2779078444345609	0.0	0.7828702106046543	-0.3066664708579269	0.0	0.8071737951555581	-0.23048388255053814	0.0	0.8340579384056765	-0.17060375378997406	0.0	0.7905902993405748	-0.3132656198433952	0.0	0.8264290210052875	-0.24772942132303527	0.0	0.8512052462425751	-0.19650210547160782	0.0
128	4.284593837535014	0.7844058075407919	-0.4672940621233435	0.0	0.7884253199445164	-0.4679559246502133	0.0	0.8082917321364771	-0.5915966061707301	0.0	0.7766686678337736	-0.7170517220156726	0.0	0.8131861482524794	-0.7496081774681123	0.0	0.8029019643012436	-0.753375206254577	0.0	0.7624782993145591	-0.7361266818988782	0.0	0.7887483242815301	-0.4676076046413886	0.0	0.8068533341125519	-0.5918438008764335	0.0	0.7829394439179634	-0.7094002604778211	0.0	0.8214648483576519	-0.7394699015282692	0.0	0.8189444385194247	-0.7323100785756573	0.0	0.7605598935387031	-0.7224524620670536	0.0	0.7861400296278178	-0.3126780396654647	0.0	0.8163483829475553	-0.23932896632112466	0.0	0.8218932044027009	-0.27904149981258325	0.0	0.7813788101523332	-0.309066032104441	0.0	0.8030197448158841	-0.2317627877022031	0.0	0.8285994303260567	-0.1722126364275738	0.0	0.7869971431613438	-0.3148637905029376	0.0	0.8187347106955439	-0.24712144945467576	0.0	0.8423130757544303	-0.1930717108710998	0.0
129	4.318067226890756	0.7883330959327568	-0.47255043571669325	0.0	0.7926098758710431	-0.4736127661673522	0.0	0.8048413059048902	-0.5973335722888359	0.0	0.7738951011705159	-0.7235233549683315	0.0	0.8078101188264148	-0.7571805410933651	0.0	0.7974109471679491	-0.7611403111361753	0.0	0.7604330716464622	-0.7431222156352791	0.0	0.7915000390788536	-0.4732775599401022	0.0	0.8038474921590332	-0.5978475476636456	0.0	0.7800742075842879	-0.715557285416333	0.0	0.8163280539143255	-0.7467971381054801	0.0	0.8140419760885339	-0.7398544200790902	0.0	0.7587051035185257	-0.7285085065499438	0.0	0.7845238877441307	-0.31911017903352895	0.0	0.8132316844435601	-0.24486694678626755	0.0	0.8190610177490281	-0.2846413922769213	0.0	0.7799483264581976	-0.31600757941504176	0.0	0.7987972042727045	-0.23745113669980863	0.0	0.8231653053395304	-0.17784512988924625	0.0	0.7840558128626838	-0.32109186142456553	0.0	0.8117896559968051	-0.2511089246963743	0.0	0.8337251922626112	-0.19407689617894022	0.0
